# xmcd
# 
# Track frame offsets:
#     150
#     17528
#     37247
#     59380
#     77631
#     108074
#     125976
#     146050
#     168019
#     194513
#     211036
#     233791
#     252197
#     279881
#     303854
#     325968
# 
# Disc length: 4612
# 
# Revision: 3
# Processed by: cddbd v1.5.2PL0 Copyright (c) Steve Scherf et al.
# Submitted via: fre:ac v1.1beta1pre2
# 
DISCID=d8120210
DTITLE=Taylor Swift - Speak Now
DYEAR=2010
DGENRE=Pop
TTITLE0=Mine
TTITLE1=Sparks Fly
TTITLE2=Back to December
TTITLE3=Speak Now
TTITLE4=Dear John
TTITLE5=Mean
TTITLE6=The Story of Us
TTITLE7=Never Grow Up
TTITLE8=Enchanted
TTITLE9=Better than Revenge
TTITLE10=Innocent
TTITLE11=Haunted
TTITLE12=Last Kiss
TTITLE13=Long Live
TTITLE14=Back to December (US Version)
TTITLE15=The Story of Us (US Version)
EXTD=
EXTT0=
EXTT1=
EXTT2=
EXTT3=
EXTT4=
EXTT5=
EXTT6=
EXTT7=
EXTT8=
EXTT9=
EXTT10=
EXTT11=
EXTT12=
EXTT13=
EXTT14=
EXTT15=
PLAYORDER=
